<?xml version="1.0" standalone="no"?>
<!DOCTYPE svg PUBLIC "-//W3C//DTD SVG 20010904//EN"
 "http://www.w3.org/TR/2001/REC-SVG-20010904/DTD/svg10.dtd">
<svg version="1.0" xmlns="http://www.w3.org/2000/svg"
 width="1200.000000pt" height="895.000000pt" viewBox="0 0 1200.000000 895.000000"
 preserveAspectRatio="xMidYMid meet">

<g transform="translate(0.000000,895.000000) scale(0.100000,-0.100000)"
fill="#000000" stroke="none">
<path d="M830 4960 l0 -2980 2188 -1 c1279 -1 2170 -5 2147 -10 -22 -5 -175
-27 -341 -49 -372 -50 -438 -61 -404 -70 21 -5 22 -7 8 -13 -10 -3 -26 -4 -35
-1 -17 5 -17 5 -1 -5 13 -9 58 -6 178 9 89 12 166 20 172 18 11 -4 -167 -32
-647 -103 -168 -25 -277 -45 -260 -48 17 -2 1 -3 -35 -2 l-65 3 60 -13 c52
-11 55 -13 25 -15 -19 -1 -29 -4 -22 -7 7 -3 86 5 175 16 259 33 471 59 632
76 83 8 186 20 230 25 139 16 542 49 760 61 476 27 1067 -14 2139 -146 231
-29 219 -28 211 -14 -4 6 -13 8 -21 5 -8 -3 -11 0 -8 8 4 10 19 13 47 10 38
-3 37 -2 -8 6 -27 5 -129 21 -225 35 -204 30 -532 81 -640 100 -130 22 -50 16
135 -10 98 -14 183 -24 189 -21 6 2 -2 5 -18 5 -40 1 -28 10 25 19 37 7 8 13
-196 41 -390 53 -589 82 -600 86 -5 2 977 4 2183 4 l2192 1 0 2980 0 2980
-5085 0 -5085 0 0 -2980z m10145 0 l0 -2960 -2270 1 c-1248 0 -2279 4 -2290 9
-11 5 980 9 2263 9 l2282 1 0 2940 0 2940 -5045 0 -5045 0 0 -2940 0 -2940
2283 -1 c1392 0 2270 -4 2251 -10 -19 -5 -951 -8 -2290 -7 l-2259 3 -3 2945
c-1 1620 0 2951 3 2958 3 9 1025 12 5062 12 l5058 0 0 -2960z m-40 0 l0 -2915
-5022 -3 -5023 -2 0 2920 0 2920 5023 -2 5022 -3 0 -2915z m-6058 -3086 c-3
-3 -12 -4 -19 -1 -8 3 -5 6 6 6 11 1 17 -2 13 -5z m2110 0 c-3 -3 -12 -4 -19
-1 -8 3 -5 6 6 6 11 1 17 -2 13 -5z m-2194 -11 c-7 -2 -19 -2 -25 0 -7 3 -2 5
12 5 14 0 19 -2 13 -5z m2594 -9 c-3 -3 -12 -4 -19 -1 -8 3 -5 6 6 6 11 1 17
-2 13 -5z m-3454 -141 c-7 -2 -21 -2 -30 0 -10 3 -4 5 12 5 17 0 24 -2 18 -5z"/>
<path d="M2240 7850 c-355 -3 -651 -9 -658 -13 -7 -5 -20 -26 -29 -48 -14 -35
-19 -39 -52 -40 -28 0 -32 -2 -16 -8 18 -7 17 -9 -10 -14 -16 -3 -121 -9 -233
-13 l-202 -7 0 -238 0 -239 -26 -40 c-25 -37 -35 -45 -57 -41 -5 1 -11 -8 -14
-20 -4 -14 -8 -17 -13 -9 -10 16 -22 -2883 -18 -4115 l3 -940 4998 -3 4997 -2
0 2900 0 2900 -4012 -2 c-2207 -2 -4303 -5 -4658 -8z m-613 -16 c-3 -3 -12 -4
-19 -1 -8 3 -5 6 6 6 11 1 17 -2 13 -5z m4458 -5741 c109 -6 122 -8 80 -14
-69 -10 -408 -11 -486 -1 l-64 7 85 6 c138 9 247 9 385 2z"/>
<path d="M8058 1703 c7 -3 16 -2 19 1 4 3 -2 6 -13 5 -11 0 -14 -3 -6 -6z"/>
<path d="M3688 1693 c7 -3 16 -2 19 1 4 3 -2 6 -13 5 -11 0 -14 -3 -6 -6z"/>
<path d="M7983 1693 c9 -2 23 -2 30 0 6 3 -1 5 -18 5 -16 0 -22 -2 -12 -5z"/>
<path d="M7983 1673 c9 -2 23 -2 30 0 6 3 -1 5 -18 5 -16 0 -22 -2 -12 -5z"/>
<path d="M3733 1663 c9 -2 25 -2 35 0 9 3 1 5 -18 5 -19 0 -27 -2 -17 -5z"/>
<path d="M2440 1573 c0 -2 4 -13 10 -23 14 -27 64 -40 149 -39 42 1 68 3 58 6
-9 2 -15 8 -12 13 3 5 -5 12 -17 16 -22 7 -22 7 -3 15 12 5 -3 6 -35 3 -30 -3
-76 -1 -102 4 -27 5 -48 7 -48 5z"/>
<path d="M9105 1571 c3 -6 16 -11 28 -12 21 0 21 -1 2 -9 -17 -7 -17 -9 -3 -9
11 -1 15 -6 12 -16 -5 -13 8 -15 82 -15 112 0 131 6 150 42 l15 29 -28 -8
c-31 -9 -179 -7 -231 2 -23 4 -32 3 -27 -4z"/>
</g>
</svg>
